Coordinates
nRows=18
nColumns=34

# SIMM Motion File Header:
name Coordinates
datacolumns 34
datarows 18
otherdata 1
range 0.60000000 0.61700000

Units are S.I. units (second, meters, Newtons, ...)
Angles are in degrees.

endheader
time	pelvis_tz	pelvis_tx	pelvis_ty	pelvis_tilt	pelvis_list	pelvis_rotation	hip_flexion_r	hip_adduction_r	hip_rotation_r	knee_r_tx	knee_r_ty	knee_angle_r	tib_pat_r_tx	tib_pat_r_ty	tib_pat_r_r1	ankle_angle_r	subtalar_angle_r	mtp_angle_r	hip_flexion_l	hip_adduction_l	hip_rotation_l	knee_l_tx	knee_l_ty	knee_angle_l	tib_pat_l_tx	tib_pat_l_ty	tib_pat_l_r1	ankle_angle_l	subtalar_angle_l	mtp_angle_l	lumbar_extension	lumbar_bending	lumbar_rotation
      0.60000000	     -0.25677621	      0.45013845	      0.89523810	     -0.67439866	      1.66037628	     -3.30097182	    -13.46242447	      1.54224997	     15.41376430	     -0.00115911	     -0.41491856	    -19.46475292	      0.04395427	     -0.02050665	     13.45989089	     18.98804716	      0.00000000	     -0.00000000	     22.51175279	      1.89151536	     -5.32069999	     -0.00355598	     -0.41378650	     -8.27362438	      0.04555008	     -0.02094848	      7.94735253	     -5.38854786	     -0.00000000	      0.00000000	     -5.73771140	      0.92328095	      4.71238215
      0.60100000	     -0.25685770	      0.45141570	      0.89532038	     -0.68115437	      1.71395557	     -3.27129935	    -13.44213279	      1.49867567	     15.34038346	     -0.00112007	     -0.41494035	    -19.64489507	      0.04392842	     -0.02050054	     13.51264304	     18.80690927	      0.00000000	     -0.00000000	     22.49993780	      1.95954702	     -5.30899899	     -0.00353547	     -0.41379662	     -8.38937026	      0.04553187	     -0.02094258	      8.03194747	     -5.40857302	     -0.00000000	      0.00000000	     -5.70412291	      0.84268312	      4.70996239
      0.60200000	     -0.25694029	      0.45269472	      0.89540564	     -0.68794906	      1.76735455	     -3.24106472	    -13.42072550	      1.45512383	     15.26594694	     -0.00108094	     -0.41496245	    -19.82640069	      0.04390224	     -0.02049437	     13.56490750	     18.61974253	      0.00000000	     -0.00000000	     22.48741614	      2.02763544	     -5.29689221	     -0.00351494	     -0.41380671	     -8.50446772	      0.04551376	     -0.02093672	      8.11539468	     -5.42693626	     -0.00000000	      0.00000000	     -5.67027634	      0.76234634	      4.70695640
      0.60300000	     -0.25702397	      0.45397545	      0.89549384	     -0.69477876	      1.82056038	     -3.21028148	    -13.39819007	      1.41159879	     15.19046267	     -0.00104174	     -0.41498487	    -20.00927253	      0.04387572	     -0.02048812	     13.61667772	     18.42651857	      0.00000000	     -0.00000000	     22.47417166	      2.09576253	     -5.28438908	     -0.00349440	     -0.41381676	     -8.61886081	      0.04549575	     -0.02093091	      8.19766863	     -5.44361880	     -0.00000000	      0.00000000	     -5.63618444	      0.68228834	      4.70336537
      0.60400000	     -0.25710874	      0.45525784	      0.89558497	     -0.70163956	      1.87356056	     -3.17896352	    -13.37451405	      1.36810453	     15.11393911	     -0.00100248	     -0.41500762	    -20.19351289	      0.04384885	     -0.02048181	     13.66794738	     18.22721284	      0.00000000	     -0.00000000	     22.46018858	      2.16391036	     -5.27149950	     -0.00347386	     -0.41382677	     -8.73249480	      0.04547786	     -0.02092515	      8.27874573	     -5.45860278	     -0.00000000	      0.00000000	     -5.60185994	      0.60252644	      4.69919076
      0.60500000	     -0.25719457	      0.45654186	      0.89567898	     -0.70852757	      1.92634294	     -3.14712509	    -13.34968504	      1.32464462	     15.03638530	     -0.00096317	     -0.41503069	    -20.37912368	      0.04382161	     -0.02047542	     13.71871045	     18.02180470	      0.00000000	     -0.00000000	     22.44545148	      2.23206115	     -5.25823375	     -0.00345334	     -0.41383673	     -8.84531618	      0.04546011	     -0.02091945	      8.35860434	     -5.47187123	     -0.00000000	      0.00000000	     -5.56731564	      0.52307758	      4.69443431
      0.60600000	     -0.25728144	      0.45782744	      0.89577585	     -0.71543898	      1.97889571	     -3.11478079	    -13.32369063	      1.28122225	     14.95781083	     -0.00092381	     -0.41505410	    -20.56610640	      0.04379402	     -0.02046896	     13.76896120	     17.81027748	      0.00000000	     -0.00000000	     22.42994534	      2.30019733	     -5.24460259	     -0.00343284	     -0.41384664	     -8.95727271	      0.04544251	     -0.02091381	      8.43722463	     -5.48340813	     -0.00000000	      0.00000000	     -5.53256430	      0.44395830	      4.68909805
      0.60700000	     -0.25736935	      0.45911454	      0.89587555	     -0.72236999	      2.03120743	     -3.08194553	    -13.29651844	      1.23784021	     14.87822588	     -0.00088441	     -0.41507785	    -20.75446217	      0.04376607	     -0.02046243	     13.81869423	     17.59261860	      0.00000000	     -0.00000000	     22.41365549	      2.36830153	     -5.23061715	     -0.00341238	     -0.41385649	     -9.06831341	      0.04542508	     -0.02090825	      8.51458862	     -5.49319844	     -0.00000000	      0.00000000	     -5.49761874	      0.36518468	      4.68318433
      0.60800000	     -0.25745826	      0.46040311	      0.89597803	     -0.72931692	      2.08326705	     -3.04863458	    -13.26815614	      1.19450089	     14.79764116	     -0.00084496	     -0.41510193	    -20.94419178	      0.04373775	     -0.02045582	     13.86790450	     17.36881966	      0.00000000	     -0.00000000	     22.39656772	      2.43635665	     -5.21628898	     -0.00339197	     -0.41386627	     -9.17838856	      0.04540782	     -0.02090275	      8.59068003	     -5.50122809	     -0.00000000	      0.00000000	     -5.46249173	      0.28677238	      4.67669582
      0.60900000	     -0.25754817	      0.46169308	      0.89608328	     -0.73627610	      2.13506391	     -3.01486355	    -13.23859140	      1.15120624	     14.71606799	     -0.00080547	     -0.41512636	    -21.13529565	      0.04370907	     -0.02044915	     13.91658735	     17.13887650	      0.00000000	     -0.00000000	     22.37866820	      2.50434583	     -5.20163003	     -0.00337162	     -0.41387599	     -9.28744978	      0.04539075	     -0.02089733	      8.66548429	     -5.50748406	     -0.00000000	      0.00000000	     -5.42719606	      0.20873656	      4.66963551
      0.61000000	     -0.25763906	      0.46298442	      0.89619124	     -0.74324396	      2.18658779	     -2.98064834	    -13.20781191	      1.10795779	     14.63351821	     -0.00076595	     -0.41515114	    -21.32777387	      0.04368002	     -0.02044240	     13.96473851	     16.90278934	      0.00000000	     -0.00000000	     22.35994353	      2.57225253	     -5.18665264	     -0.00335134	     -0.41388563	     -9.39544997	      0.04537389	     -0.02089198	      8.73898842	     -5.51195443	     -0.00000000	      0.00000000	     -5.39174451	      0.13109190	      4.66200674
      0.61100000	     -0.25773090	      0.46427706	      0.89630188	     -0.75021699	      2.23782888	     -2.94600517	    -13.17580542	      1.06475665	     14.55000427	     -0.00072639	     -0.41517627	    -21.52162619	      0.04365059	     -0.02043558	     14.01235414	     16.66056276	      0.00000000	     -0.00000000	     22.34038077	      2.64006052	     -5.17136951	     -0.00333115	     -0.41389520	     -9.50234336	      0.04535724	     -0.02088673	      8.81118106	     -5.51462842	     -0.00000000	      0.00000000	     -5.35614982	      0.05385259	      4.65381317
      0.61200000	     -0.25782368	      0.46557096	      0.89641516	     -0.75719177	      2.28877779	     -2.91095057	    -13.14255969	      1.02160347	     14.46553917	     -0.00068681	     -0.41520175	    -21.71685200	      0.04362079	     -0.02042868	     14.05943083	     16.41220581	      0.00000000	     -0.00000000	     22.31996740	      2.70775387	     -5.15579371	     -0.00331106	     -0.41390468	     -9.60808553	      0.04534081	     -0.02088155	      8.88205230	     -5.51549624	     -0.00000000	      0.00000000	     -5.32042472	     -0.02296767	      4.64505879
      0.61300000	     -0.25791738	      0.46686605	      0.89653104	     -0.76416493	      2.33942557	     -2.87550135	    -13.10806258	      0.97849854	     14.38013648	     -0.00064719	     -0.41522759	    -21.91345031	      0.04359061	     -0.02042171	     14.10596562	     16.15773198	      0.00000000	     -0.00000000	     22.29869134	      2.77531699	     -5.13993862	     -0.00329107	     -0.41391408	     -9.71263338	      0.04532461	     -0.02087647	      8.95159372	     -5.51454917	     -0.00000000	      0.00000000	     -5.28458190	     -0.09935567	      4.63574793
      0.61400000	     -0.25801197	      0.46816227	      0.89664949	     -0.77113317	      2.38976366	     -2.83967460	    -13.07230200	      0.93544168	     14.29381036	     -0.00060756	     -0.41525380	    -22.11141975	      0.04356005	     -0.02041467	     14.15195601	     15.89715927	      0.00000000	     -0.00000000	     22.27654097	      2.84273462	     -5.12381792	     -0.00327121	     -0.41392338	     -9.81594514	      0.04530866	     -0.02087147	      9.01979824	     -5.51177958	     -0.00000000	      0.00000000	     -5.24863400	     -0.17529868	      4.62588522
      0.61500000	     -0.25810745	      0.46945958	      0.89677046	     -0.77809328	      2.43978396	     -2.80348768	    -13.03526599	      0.89243233	     14.20657555	     -0.00056790	     -0.41528037	    -22.31075855	      0.04352911	     -0.02040756	     14.19739999	     15.63051021	      0.00000000	     -0.00000000	     22.25350510	      2.90999185	     -5.10744559	     -0.00325148	     -0.41393259	     -9.91798041	      0.04529297	     -0.02086657	      9.08666013	     -5.50718090	     -0.00000000	      0.00000000	     -5.21259361	     -0.25078445	      4.61547560
      0.61600000	     -0.25820378	      0.47075791	      0.89689390	     -0.78504212	      2.48947877	     -2.76695818	    -12.99694266	      0.84946950	     14.11844735	     -0.00052823	     -0.41530730	    -22.51146450	      0.04349779	     -0.02040037	     14.24229603	     15.35781191	      0.00000000	     -0.00000000	     22.22957302	      2.97707413	     -5.09083588	     -0.00323189	     -0.41394170	    -10.01870013	      0.04527753	     -0.02086177	      9.15217492	     -5.50074770	     -0.00000000	      0.00000000	     -5.17647328	     -0.32580122	      4.60452431
      0.61700000	     -0.25830095	      0.47205721	      0.89701977	     -0.79197660	      2.53884084	     -2.73010395	    -12.95732029	      0.80655181	     14.02944165	     -0.00048854	     -0.41533461	    -22.71353499	      0.04346608	     -0.02039311	     14.28664315	     15.07909611	      0.00000000	     -0.00000000	     22.20473445	      3.04396730	     -5.07400327	     -0.00321246	     -0.41395071	    -10.11806662	      0.04526236	     -0.02085707	      9.21633934	     -5.49247568	     -0.00000000	      0.00000000	     -5.14028547	     -0.40033769	      4.59303687
